# xmcd
#
# Track frame offsets:
#	225
#	16300
#	35962
#	54127
#	67252
#	77406
#	90756
#	107682
#	121941
#	135990
#	151863
#	161410
#
# Disc length: 2322 seconds
#
# Revision: 1
# Processed by: cddbd v1.5.2PL0 Copyright (c) Steve Scherf et al.
# Submitted via: audiograbber 1.83.01
#
DISCID=86090f0c
DTITLE=Laurie "Waddy" Mitchell - Ol' Soul
DYEAR=2006
DGENRE=Blues
TTITLE0=Empty Bed Blues
TTITLE1=Send Me To The 'lectric Chair
TTITLE2=How Long, How Long Blues
TTITLE3=Nyquil Blues
TTITLE4=What 'cha Gonna Do ?
TTITLE5=Is You Is Or Is You Ain't My Baby
TTITLE6=Maude's Blues
TTITLE7=See If I'll Care
TTITLE8=Patience
TTITLE9=Put A Sock In It
TTITLE10=It's Been A Long, LongTime Blues
TTITLE11=Baby, Won't You Please Come Home
EXTD=
EXTT0=
EXTT1=
EXTT2=
EXTT3=
EXTT4=
EXTT5=
EXTT6=
EXTT7=
EXTT8=
EXTT9=
EXTT10=
EXTT11=
PLAYORDER=
